<svg id="outline" height="512" viewBox="0 0 64 64" width="512" xmlns="http://www.w3.org/2000/svg"><path d="m25 6h-14a5.006 5.006 0 0 0 -5 5v14a5.006 5.006 0 0 0 5 5h14a5.006 5.006 0 0 0 5-5v-14a5.006 5.006 0 0 0 -5-5zm3 19a3 3 0 0 1 -3 3h-14a3 3 0 0 1 -3-3v-14a3 3 0 0 1 3-3h14a3 3 0 0 1 3 3zm25-19h-14a5.006 5.006 0 0 0 -5 5v14a5.006 5.006 0 0 0 5 5h14a5.006 5.006 0 0 0 5-5v-14a5.006 5.006 0 0 0 -5-5zm3 19a3 3 0 0 1 -3 3h-14a3 3 0 0 1 -3-3v-14a3 3 0 0 1 3-3h14a3 3 0 0 1 3 3zm-31 9h-14a5.006 5.006 0 0 0 -5 5v14a5.006 5.006 0 0 0 5 5h14a5.006 5.006 0 0 0 5-5v-14a5.006 5.006 0 0 0 -5-5zm3 19a3 3 0 0 1 -3 3h-14a3 3 0 0 1 -3-3v-14a3 3 0 0 1 3-3h14a3 3 0 0 1 3 3zm18-19a12 12 0 1 0 12 12 12.013 12.013 0 0 0 -12-12zm0 22a10 10 0 1 1 10-10 10.011 10.011 0 0 1 -10 10z"/></svg>