<svg height="512" viewBox="0 0 32 32" width="512" xmlns="http://www.w3.org/2000/svg"><g id="_97_Office_Building_Block_Apartment_Buildings_Hotel_Offices" data-name="97 Office Building, Block Apartment, Buildings, Hotel, Offices"><path d="m4 10a1 1 0 0 0 -1 1v16h5v-17zm3 14h-2v-2h2zm0-4h-2v-2h2zm0-4h-2v-2h2zm21-6h-4v17h5v-16a1 1 0 0 0 -1-1zm-1 14h-2v-2h2zm0-4h-2v-2h2zm0-4h-2v-2h2zm-5-14h-12a1 1 0 0 0 -1 1v24h14v-24a1 1 0 0 0 -1-1zm-7 22h-2v-2h2zm0-4h-2v-2h2zm0-4h-2v-2h2zm0-4h-2v-2h2zm0-4h-2v-2h2zm4 16h-2v-2h2zm0-4h-2v-2h2zm0-4h-2v-2h2zm0-4h-2v-2h2zm0-4h-2v-2h2zm11 22h-28v-2h28z"/></g></svg>