<svg id="Layer_1" height="512" viewBox="0 0 512 512" width="512" xmlns="http://www.w3.org/2000/svg" data-name="Layer 1"><path d="m162.649 161.049a8 8 0 0 1 8-8h132.011a8 8 0 0 1 0 16h-132.011a8 8 0 0 1 -8-8zm8-35.987h132.011a8 8 0 0 0 0-16h-132.011a8 8 0 0 0 0 16zm0-43.989h132.011a8 8 0 0 0 0-16h-132.011a8 8 0 0 0 0 16zm321.058 421.35a31.125 31.125 0 0 1 -43.967 0l-76.783-76.783a8 8 0 0 1 0-11.315l1.438-1.438-11.144-11.143c-.5.345-1 .691-1.5 1.029v21.885a28.631 28.631 0 0 1 -28.6 28.6h-291.337a28.631 28.631 0 0 1 -28.6-28.6v-300.824a28.042 28.042 0 0 1 8.377-20.223l94.735-94.735a28.039 28.039 0 0 1 20.222-8.376h196.6a28.631 28.631 0 0 1 28.6 28.6v178.652a117.188 117.188 0 0 1 31.278 164.216l11.142 11.143 1.44-1.439a8 8 0 0 1 11.313 0l76.784 76.783a31.126 31.126 0 0 1 .002 43.968zm-197.159-298.5a101.341 101.341 0 1 0 101.341 101.34 101.455 101.455 0 0 0 -101.341-101.341zm-256.018-96.623h68.887a10.611 10.611 0 0 0 10.6-10.6v-68.886zm305.22 304.475a117.145 117.145 0 0 1 -131.323-22.785h-41.778a8 8 0 0 1 0-16h28.129a117.113 117.113 0 0 1 -14.638-27.99h-13.491a8 8 0 0 1 0-16h8.973a117.41 117.41 0 0 1 -2.414-23.739c0-1.423.034-2.838.084-4.249h-6.643a8 8 0 0 1 0-16h8.312a116.41 116.41 0 0 1 8.624-27.988h-16.936a8 8 0 0 1 0-16h25.751a118.294 118.294 0 0 1 25.676-27.989h-51.427a8 8 0 0 1 0-16h78.563a117.249 117.249 0 0 1 94.538 1.713v-169.648a12.613 12.613 0 0 0 -12.6-12.6h-196.6c-.182 0-.354.017-.532.023v80.177a26.63 26.63 0 0 1 -26.6 26.6h-80.18c-.006.178-.023.35-.023.532v300.826a12.613 12.613 0 0 0 12.6 12.6h291.336a12.613 12.613 0 0 0 12.6-12.6zm39.959-10.2 7.148-7.148-9.882-9.882q-3.42 3.725-7.148 7.148zm4.218 18.409 9.715 9.715 21.339-21.34-9.714-9.714zm92.467 49.787-50.1-50.1-21.339 21.34 50.1 50.1a15.09 15.09 0 0 0 21.341-21.339zm-185.846-253.841a89.334 89.334 0 1 1 -89.333 89.333 89.434 89.434 0 0 1 89.333-89.333zm67.112 59.822-51.06 29.483 51.169 29.31a73.115 73.115 0 0 0 -.1-58.793zm-7.87 72.663-63.218-36.215a8 8 0 0 1 -4.024-6.941v-72.884a73.327 73.327 0 1 0 67.242 116.04zm-51.242-116.041v59.033l51.1-29.5a73.344 73.344 0 0 0 -51.1-29.533zm-172.268-76.956-38 38.353-18.625-18.159a8 8 0 0 0 -11.168 11.457l24.311 23.7a8 8 0 0 0 11.267-.1l43.581-43.99a8 8 0 1 0 -11.366-11.26zm0 87.978-38 38.352-18.625-18.158a8 8 0 0 0 -11.168 11.457l24.311 23.7a8 8 0 0 0 11.267-.1l43.581-43.991a8 8 0 1 0 -11.366-11.256zm0 87.974-38 38.353-18.625-18.158a8 8 0 0 0 -11.168 11.457l24.311 23.7a8 8 0 0 0 11.267-.1l43.581-43.989a8 8 0 1 0 -11.366-11.263z"/></svg>