<svg id="layer_1" enable-background="new 0 0 32 32" viewBox="0 0 32 32" xmlns="http://www.w3.org/2000/svg"><path d="m2.0791016 20.8691406c-.15625.3701172-.0761719.7978516.203125 1.0859375l3.8457031 3.9638672c.0002441.0002441.0006104.0003662.0008545.0006104.1817627.1881104.4343262.3070068.7169189.3070068s.5351562-.1188965.7169189-.3070068c.0002441-.0002441.0006104-.0003662.0008545-.0006104l3.8466797-3.9638672c.2792969-.2880859.359375-.7158203.203125-1.0859375s-.5195312-.6103516-.9208984-.6103516h-2.8466797v-13.4853515c0-.5527344-.4472656-1-1-1s-1 .4472656-1 1v13.4853516h-2.8457031c-.4013672 0-.7646484.2402343-.9208984.6103515z"/><path d="m26.8798828 12.9228516c0-.5527344-.4472656-1-1-1h-10.8515625c-.5527344 0-1 .4472656-1 1s.4472656 1 1 1h10.8515625c.5527344 0 1-.4472657 1-1z"/><path d="m15.0283203 20.0732422h7.7314453c.5527344 0 1-.4472656 1-1s-.4472656-1-1-1h-7.7314453c-.5527344 0-1 .4472656-1 1s.4472656 1 1 1z"/><path d="m15.0283203 26.2265625h4.6113281c.5527344 0 1-.4472656 1-1s-.4472656-1-1-1h-4.6113281c-.5527344 0-1 .4472656-1 1s.4472656 1 1 1z"/><path d="m29 5.7734375h-13.9716797c-.5527344 0-1 .4472656-1 1s.4472656 1 1 1h13.9716797c.5527344 0 1-.4472656 1-1s-.4472656-1-1-1z"/></svg>